<?xml version="1.0" encoding="UTF-8"?><svg id="uuid-3453ae1d-de7a-4a09-9d7a-d16745b67a6b" xmlns="http://www.w3.org/2000/svg" viewBox="0 0 304.83 283.46"><g id="uuid-23f2dbdd-3f69-4076-ad5d-b9c646e54905"><g id="uuid-088ed1d2-7263-40b4-9aaa-50e12b40c9ac"><path d="M15.55,215.63c-2.84,0-5.03-.73-6.58-2.19-1.55-1.46-2.33-3.7-2.33-6.72v-22.83H.35v-8.78h6.42v-12.16h10.67v12.16h8.31v8.78h-8.17v22.96h8.98v8.78h-11.01Z" style="fill:#fff;"/><path d="M49.35,216.44c-3.83,0-7.26-.87-10.3-2.6-3.04-1.73-5.43-4.18-7.16-7.33-1.73-3.15-2.6-6.86-2.6-11.14s.87-8.06,2.6-11.21c1.73-3.15,4.12-5.58,7.16-7.29,3.04-1.71,6.47-2.57,10.3-2.57s7.44.86,10.43,2.57c2.99,1.71,5.35,4.14,7.06,7.29,1.71,3.15,2.57,6.89,2.57,11.21s-.86,8-2.57,11.18c-1.71,3.17-4.09,5.62-7.12,7.33-3.04,1.71-6.49,2.57-10.37,2.57ZM40.43,170.99c-1.62,0-3.02-.58-4.19-1.76-1.17-1.17-1.76-2.59-1.76-4.25s.58-3.08,1.76-4.25,2.57-1.76,4.19-1.76,3.08.59,4.25,1.76c1.17,1.17,1.76,2.59,1.76,4.25s-.59,3.08-1.76,4.25-2.59,1.76-4.25,1.76ZM49.35,206.71c2.75,0,4.95-1.02,6.62-3.07,1.66-2.05,2.5-4.81,2.5-8.27s-.83-6.28-2.5-8.31c-1.67-2.03-3.87-3.04-6.62-3.04s-4.84,1.01-6.55,3.04c-1.71,2.03-2.57,4.79-2.57,8.31s.85,6.22,2.57,8.27c1.71,2.05,3.89,3.07,6.55,3.07ZM58.2,170.99c-1.62,0-3.02-.58-4.19-1.76-1.17-1.17-1.76-2.59-1.76-4.25s.58-3.08,1.76-4.25,2.57-1.76,4.19-1.76,3.08.59,4.25,1.76c1.17,1.17,1.76,2.59,1.76,4.25s-.59,3.08-1.76,4.25-2.59,1.76-4.25,1.76Z" style="fill:#fff;"/><path d="M93.5,216.44c-3.78,0-7.16-.87-10.13-2.6-2.97-1.73-5.31-4.18-7.02-7.33-1.71-3.15-2.57-6.86-2.57-11.14s.85-8.06,2.57-11.21c1.71-3.15,4.05-5.58,7.02-7.29,2.97-1.71,6.35-2.57,10.13-2.57,3.15,0,6.03.59,8.64,1.76,2.61,1.17,4.78,2.88,6.52,5.13,1.73,2.25,2.85,5.02,3.34,8.31h-11.21c-.54-1.8-1.45-3.16-2.73-4.09-1.28-.92-2.8-1.38-4.56-1.38-2.61,0-4.73,1.01-6.35,3.04-1.62,2.03-2.43,4.79-2.43,8.31s.81,6.22,2.43,8.27c1.62,2.05,3.74,3.07,6.35,3.07,1.89,0,3.51-.5,4.86-1.49,1.35-.99,2.27-2.52,2.77-4.59h11.01c-.45,3.47-1.54,6.37-3.28,8.71-1.73,2.34-3.93,4.11-6.58,5.3-2.66,1.19-5.58,1.79-8.78,1.79Z" style="fill:#fff;"/><path d="M117.77,215.63v-56.73h10.94v21.75h.27c1.22-2.03,2.81-3.58,4.79-4.66,1.98-1.08,4.3-1.62,6.96-1.62,2.93,0,5.5.72,7.73,2.16,2.23,1.44,3.97,3.43,5.23,5.98,1.26,2.54,1.89,5.48,1.89,8.81v24.31h-10.94v-22.22c0-2.84-.71-5.06-2.13-6.69-1.42-1.62-3.37-2.43-5.84-2.43s-4.37.81-5.81,2.43c-1.44,1.62-2.16,3.85-2.16,6.69v22.22h-10.94Z" style="fill:#fff;"/><path d="M174.71,215.63c-2.84,0-5.03-.73-6.58-2.19-1.55-1.46-2.33-3.7-2.33-6.72v-22.83h-6.28v-8.78h6.42v-12.16h10.67v12.16h8.31v8.78h-8.17v22.96h8.98v8.78h-11.01Z" style="fill:#fff;"/><path d="M208.72,216.44c-3.87,0-7.29-.87-10.26-2.6-2.97-1.73-5.3-4.19-6.99-7.36-1.69-3.17-2.53-6.92-2.53-11.24s.82-7.98,2.46-11.11c1.64-3.13,3.93-5.55,6.85-7.26,2.93-1.71,6.28-2.57,10.06-2.57,3.56,0,6.74.79,9.56,2.36,2.81,1.58,5.04,3.86,6.69,6.85,1.64,2.99,2.46,6.65,2.46,10.97v3.78h-27.35c.36,2.97,1.35,5.26,2.97,6.85,1.62,1.6,3.62,2.4,6.01,2.4,1.89,0,3.44-.44,4.66-1.32s2.05-2.08,2.5-3.61h11.21c-.54,2.88-1.67,5.36-3.38,7.43-1.71,2.07-3.85,3.66-6.42,4.76-2.57,1.1-5.4,1.65-8.51,1.65ZM199.88,190.84h16.48c-.36-2.52-1.26-4.43-2.7-5.74-1.44-1.31-3.2-1.96-5.27-1.96s-3.93.65-5.44,1.96c-1.51,1.31-2.53,3.22-3.07,5.74Z" style="fill:#fff;"/><path d="M234.22,215.63v-40.52h10.53v6.69h.27c.9-2.21,2.26-3.95,4.09-5.23,1.82-1.28,3.97-1.92,6.45-1.92h3.38v9.72h-3.85c-3.42,0-5.93.99-7.53,2.97-1.6,1.98-2.4,4.59-2.4,7.83v20.46h-10.94Z" style="fill:#fff;"/><path d="M6.67,282.65v-56.73h10.94v30.73h.27l13.84-14.52h13.03l-15.53,16.21,16.82,24.31h-12.76l-11.82-17.22-3.85,3.44v13.78H6.67Z" style="fill:#fff;"/><path d="M65.74,283.46c-3.83,0-7.26-.87-10.3-2.6-3.04-1.73-5.43-4.18-7.16-7.33-1.73-3.15-2.6-6.86-2.6-11.14s.87-8.06,2.6-11.21c1.73-3.15,4.12-5.58,7.16-7.29,3.04-1.71,6.47-2.57,10.3-2.57s7.44.86,10.43,2.57c2.99,1.71,5.35,4.14,7.06,7.29,1.71,3.15,2.57,6.89,2.57,11.21s-.86,8-2.57,11.18c-1.71,3.17-4.09,5.62-7.12,7.33-3.04,1.71-6.49,2.57-10.37,2.57ZM65.74,273.74c2.75,0,4.95-1.02,6.62-3.07,1.66-2.05,2.5-4.81,2.5-8.27s-.83-6.28-2.5-8.31c-1.67-2.03-3.87-3.04-6.62-3.04s-4.84,1.01-6.55,3.04c-1.71,2.03-2.57,4.79-2.57,8.31s.85,6.22,2.57,8.27c1.71,2.05,3.89,3.07,6.55,3.07Z" style="fill:#fff;"/><path d="M92.46,282.65v-56.73h10.94v56.73h-10.94Z" style="fill:#fff;"/><path d="M112.78,282.65v-56.73h10.94v56.73h-10.94Z" style="fill:#fff;"/><path d="M150.21,283.46c-3.87,0-7.29-.87-10.26-2.6-2.97-1.73-5.3-4.19-6.99-7.36-1.69-3.17-2.53-6.92-2.53-11.24s.82-7.98,2.46-11.11c1.64-3.13,3.93-5.55,6.85-7.26,2.93-1.71,6.28-2.57,10.06-2.57,3.56,0,6.74.79,9.56,2.36,2.81,1.58,5.04,3.86,6.69,6.85,1.64,2.99,2.46,6.65,2.46,10.97v3.78h-27.35c.36,2.97,1.35,5.26,2.97,6.85,1.62,1.6,3.62,2.4,6.01,2.4,1.89,0,3.44-.44,4.66-1.32,1.22-.88,2.05-2.08,2.5-3.61h11.21c-.54,2.88-1.67,5.36-3.38,7.43-1.71,2.07-3.85,3.66-6.42,4.76-2.57,1.1-5.4,1.65-8.51,1.65ZM141.36,257.87h16.48c-.36-2.52-1.26-4.43-2.7-5.74-1.44-1.31-3.2-1.96-5.27-1.96s-3.93.65-5.44,1.96c-1.51,1.31-2.53,3.22-3.07,5.74Z" style="fill:#fff;"/><path d="M175.45,282.65v-56.73h10.94v30.73h.27l13.84-14.52h13.03l-15.53,16.21,16.82,24.31h-12.76l-11.82-17.22-3.85,3.44v13.78h-10.94Z" style="fill:#fff;"/><path d="M230.36,282.65c-2.84,0-5.03-.73-6.58-2.19-1.55-1.46-2.33-3.7-2.33-6.72v-22.83h-6.28v-8.78h6.42v-12.16h10.67v12.16h8.31v8.78h-8.17v22.96h8.98v8.78h-11.01Z" style="fill:#fff;"/><path d="M252.44,238.15c-1.71,0-3.16-.6-4.36-1.79-1.19-1.19-1.79-2.64-1.79-4.36s.6-3.16,1.79-4.36,2.64-1.79,4.36-1.79,3.16.6,4.36,1.79c1.19,1.19,1.79,2.65,1.79,4.36s-.6,3.16-1.79,4.36-2.65,1.79-4.36,1.79ZM246.97,282.65v-40.52h10.94v40.52h-10.94Z" style="fill:#fff;"/><path d="M277.95,282.65l-15.8-40.52h11.35l10.06,27.55h.27l9.93-27.55h11.08l-15.8,40.52h-11.08Z" style="fill:#fff;"/><g id="uuid-34f5c7d1-861e-49e4-8909-df951d479406"><path d="M74.37,45.66c1.92-6.23,3.67-11.87,5.24-16.92,1.57-5.05,3.08-9.88,4.52-14.49,1.44-4.61,2.91-9.36,4.4-14.25h-28.66c-2.24,7.31-4.43,14.43-6.57,21.35-2.14,6.93-4.62,14.87-7.45,23.83l-3.67,11.79h28.65l3.52-11.32Z" style="fill:#fff;"/><path d="M24.04,115.4c-2.06,6.64-4.2,13.49-6.45,20.54h28.66c2.19-7.05,4.32-13.9,6.41-20.54.41-1.31.84-2.68,1.27-4.07h-28.64c-.43,1.39-.85,2.76-1.26,4.07Z" style="fill:#fff;"/><path d="M59.79,92.47l8.83-28.35h-28.66l-8.83,28.35c-1.28,4.14-2.48,8.04-3.62,11.72h28.65c1.14-3.68,2.35-7.58,3.63-11.72Z" style="fill:#fff;"/><path d="M80.64,115.4c-2.06,6.64-4.2,13.49-6.45,20.54h28.66c2.19-7.05,4.32-13.9,6.41-20.54.41-1.31.84-2.68,1.27-4.07h-28.64c-.43,1.39-.85,2.76-1.26,4.07Z" style="fill:#fff;"/><path d="M87.72,92.47c-1.28,4.14-2.48,8.04-3.62,11.72h28.65c1.14-3.68,2.35-7.58,3.63-11.72l8.83-28.35h-28.66l-8.83,28.35Z" style="fill:#fff;"/><path d="M130.96,45.66c1.92-6.23,3.67-11.87,5.24-16.92,1.57-5.05,3.08-9.88,4.52-14.49,1.44-4.61,2.91-9.36,4.4-14.25h-28.66c-2.24,7.31-4.43,14.43-6.57,21.35-2.14,6.93-4.62,14.87-7.45,23.83l-3.67,11.79h28.65l3.52-11.32Z" style="fill:#fff;"/><rect y="31.72" width="162.73" height="25.25" style="fill:#fff;"/><rect y="78.98" width="162.73" height="25.25" style="fill:#fff;"/></g></g></g></svg>